<svg id="my-svg" width="100%" xmlns="http://www.w3.org/2000/svg" xmlns:xlink="http://www.w3.org/1999/xlink" class="erDiagram" style="max-width: 657.953px; background-color: transparent;" viewBox="0 0 657.953125 544.5" role="graphics-document document" aria-roledescription="er"><style>#my-svg{font-family:"trebuchet ms",verdana,arial,sans-serif;font-size:16px;fill:#333;}@keyframes edge-animation-frame{from{stroke-dashoffset:0;}}@keyframes dash{to{stroke-dashoffset:0;}}#my-svg .edge-animation-slow{stroke-dasharray:9,5!important;stroke-dashoffset:900;animation:dash 50s linear infinite;stroke-linecap:round;}#my-svg .edge-animation-fast{stroke-dasharray:9,5!important;stroke-dashoffset:900;animation:dash 20s linear infinite;stroke-linecap:round;}#my-svg .error-icon{fill:#552222;}#my-svg .error-text{fill:#552222;stroke:#552222;}#my-svg .edge-thickness-normal{stroke-width:1px;}#my-svg .edge-thickness-thick{stroke-width:3.5px;}#my-svg .edge-pattern-solid{stroke-dasharray:0;}#my-svg .edge-thickness-invisible{stroke-width:0;fill:none;}#my-svg .edge-pattern-dashed{stroke-dasharray:3;}#my-svg .edge-pattern-dotted{stroke-dasharray:2;}#my-svg .marker{fill:#333333;stroke:#333333;}#my-svg .marker.cross{stroke:#333333;}#my-svg svg{font-family:"trebuchet ms",verdana,arial,sans-serif;font-size:16px;}#my-svg p{margin:0;}#my-svg .entityBox{fill:#ECECFF;stroke:#9370DB;}#my-svg .relationshipLabelBox{fill:hsl(80, 100%, 96.2745098039%);opacity:0.7;background-color:hsl(80, 100%, 96.2745098039%);}#my-svg .relationshipLabelBox rect{opacity:0.5;}#my-svg .labelBkg{background-color:rgba(248.6666666666, 255, 235.9999999999, 0.5);}#my-svg .edgeLabel .label{fill:#9370DB;font-size:14px;}#my-svg .label{font-family:"trebuchet ms",verdana,arial,sans-serif;color:#333;}#my-svg .edge-pattern-dashed{stroke-dasharray:8,8;}#my-svg .node rect,#my-svg .node circle,#my-svg .node ellipse,#my-svg .node polygon{fill:#ECECFF;stroke:#9370DB;stroke-width:1px;}#my-svg .relationshipLine{stroke:#333333;stroke-width:1;fill:none;}#my-svg .marker{fill:none!important;stroke:#333333!important;stroke-width:1;}#my-svg :root{--mermaid-font-family:"trebuchet ms",verdana,arial,sans-serif;}</style><g><defs><marker id="my-svg_er-onlyOneStart" class="marker onlyOne er" refX="0" refY="9" markerWidth="18" markerHeight="18" orient="auto"><path d="M9,0 L9,18 M15,0 L15,18"/></marker></defs><defs><marker id="my-svg_er-onlyOneEnd" class="marker onlyOne er" refX="18" refY="9" markerWidth="18" markerHeight="18" orient="auto"><path d="M3,0 L3,18 M9,0 L9,18"/></marker></defs><defs><marker id="my-svg_er-zeroOrOneStart" class="marker zeroOrOne er" refX="0" refY="9" markerWidth="30" markerHeight="18" orient="auto"><circle fill="white" cx="21" cy="9" r="6"/><path d="M9,0 L9,18"/></marker></defs><defs><marker id="my-svg_er-zeroOrOneEnd" class="marker zeroOrOne er" refX="30" refY="9" markerWidth="30" markerHeight="18" orient="auto"><circle fill="white" cx="9" cy="9" r="6"/><path d="M21,0 L21,18"/></marker></defs><defs><marker id="my-svg_er-oneOrMoreStart" class="marker oneOrMore er" refX="18" refY="18" markerWidth="45" markerHeight="36" orient="auto"><path d="M0,18 Q 18,0 36,18 Q 18,36 0,18 M42,9 L42,27"/></marker></defs><defs><marker id="my-svg_er-oneOrMoreEnd" class="marker oneOrMore er" refX="27" refY="18" markerWidth="45" markerHeight="36" orient="auto"><path d="M3,9 L3,27 M9,18 Q27,0 45,18 Q27,36 9,18"/></marker></defs><defs><marker id="my-svg_er-zeroOrMoreStart" class="marker zeroOrMore er" refX="18" refY="18" markerWidth="57" markerHeight="36" orient="auto"><circle fill="white" cx="48" cy="18" r="6"/><path d="M0,18 Q18,0 36,18 Q18,36 0,18"/></marker></defs><defs><marker id="my-svg_er-zeroOrMoreEnd" class="marker zeroOrMore er" refX="39" refY="18" markerWidth="57" markerHeight="36" orient="auto"><circle fill="white" cx="9" cy="18" r="6"/><path d="M21,18 Q39,0 57,18 Q39,36 21,18"/></marker></defs><g class="root"><g class="clusters"/><g class="edgePaths"><path d="M198.215,214.209L186.199,223.882C174.182,233.556,150.15,252.903,138.133,270.993C126.117,289.083,126.117,305.917,126.117,314.333L126.117,322.75" id="id_entity-WINNER-0_entity-POSTMETA-1_0" class="edge-thickness-normal edge-pattern-solid relationshipLine" style="undefined;;;undefined" data-edge="true" data-et="edge" data-id="id_entity-WINNER-0_entity-POSTMETA-1_0" data-points="W3sieCI6MTk4LjIxNDg0Mzc1LCJ5IjoyMTQuMjA4ODI5NTUzNDAxOTN9LHsieCI6MTI2LjExNzE4NzUsInkiOjI3Mi4yNX0seyJ4IjoxMjYuMTE3MTg3NSwieSI6MzIyLjc1fV0=" marker-start="url(#my-svg_er-onlyOneStart)" marker-end="url(#my-svg_er-zeroOrMoreEnd)"/><path d="M444.996,214.209L457.012,223.882C469.029,233.556,493.061,252.903,505.077,274.556C517.094,296.208,517.094,320.167,517.094,332.146L517.094,344.125" id="id_entity-WINNER-0_entity-ATTACHMENT-2_1" class="edge-thickness-normal edge-pattern-solid relationshipLine" style="undefined;;;undefined" data-edge="true" data-et="edge" data-id="id_entity-WINNER-0_entity-ATTACHMENT-2_1" data-points="W3sieCI6NDQ0Ljk5NjA5Mzc1LCJ5IjoyMTQuMjA4ODI5NTUzNDAxOTN9LHsieCI6NTE3LjA5Mzc1LCJ5IjoyNzIuMjV9LHsieCI6NTE3LjA5Mzc1LCJ5IjozNDQuMTI1fV0=" marker-start="url(#my-svg_er-onlyOneStart)" marker-end="url(#my-svg_er-zeroOrOneEnd)"/></g><g class="edgeLabels"><g class="edgeLabel" transform="translate(126.1171875, 272.25)"><g class="label" data-id="id_entity-WINNER-0_entity-POSTMETA-1_0" transform="translate(-10.3359375, -10.5)"><foreignObject width="20.671875" height="21"><div xmlns="http://www.w3.org/1999/xhtml" class="labelBkg" style="display: table-cell; white-space: nowrap; line-height: 1.5; max-width: 200px; text-align: center;"><span class="edgeLabel"><p>has</p></span></div></foreignObject></g></g><g class="edgeLabel" transform="translate(517.09375, 272.25)"><g class="label" data-id="id_entity-WINNER-0_entity-ATTACHMENT-2_1" transform="translate(-31.703125, -10.5)"><foreignObject width="63.40625" height="21"><div xmlns="http://www.w3.org/1999/xhtml" class="labelBkg" style="display: table-cell; white-space: nowrap; line-height: 1.5; max-width: 200px; text-align: center;"><span class="edgeLabel"><p>thumbnail</p></span></div></foreignObject></g></g></g><g class="nodes"><g class="node default" id="entity-WINNER-0" transform="translate(321.60546875, 114.875)"><g style=""><path d="M-123.390625 -106.875 L123.390625 -106.875 L123.390625 106.875 L-123.390625 106.875" stroke="none" stroke-width="0" fill="#ECECFF"/><path d="M-123.390625 -106.875 C-54.702411884719425 -106.875, 13.985801230561151 -106.875, 123.390625 -106.875 M-123.390625 -106.875 C-57.15847059393069 -106.875, 9.073683812138626 -106.875, 123.390625 -106.875 M123.390625 -106.875 C123.390625 -46.03477677983055, 123.390625 14.805446440338898, 123.390625 106.875 M123.390625 -106.875 C123.390625 -63.75095132289157, 123.390625 -20.626902645783133, 123.390625 106.875 M123.390625 106.875 C27.24395129942394 106.875, -68.90272240115212 106.875, -123.390625 106.875 M123.390625 106.875 C68.49405838538195 106.875, 13.597491770763881 106.875, -123.390625 106.875 M-123.390625 106.875 C-123.390625 51.85838716202353, -123.390625 -3.1582256759529344, -123.390625 -106.875 M-123.390625 106.875 C-123.390625 38.652029691054636, -123.390625 -29.570940617890727, -123.390625 -106.875" stroke="#9370DB" stroke-width="1.3" fill="none" stroke-dasharray="0 0"/></g><g style="" class="row-rect-odd"><path d="M-123.390625 -64.125 L123.390625 -64.125 L123.390625 -21.375 L-123.390625 -21.375" stroke="none" stroke-width="0" fill="hsl(240, 100%, 100%)"/><path d="M-123.390625 -64.125 C-27.77802324974249 -64.125, 67.83457850051502 -64.125, 123.390625 -64.125 M-123.390625 -64.125 C-38.28836039674117 -64.125, 46.81390420651766 -64.125, 123.390625 -64.125 M123.390625 -64.125 C123.390625 -55.279416191371794, 123.390625 -46.43383238274359, 123.390625 -21.375 M123.390625 -64.125 C123.390625 -53.56106834000035, 123.390625 -42.99713668000069, 123.390625 -21.375 M123.390625 -21.375 C47.817211377520536 -21.375, -27.756202244958928 -21.375, -123.390625 -21.375 M123.390625 -21.375 C33.96741655736838 -21.375, -55.45579188526324 -21.375, -123.390625 -21.375 M-123.390625 -21.375 C-123.390625 -32.677156600453955, -123.390625 -43.97931320090792, -123.390625 -64.125 M-123.390625 -21.375 C-123.390625 -32.985382972341014, -123.390625 -44.59576594468202, -123.390625 -64.125" stroke="#9370DB" stroke-width="1.3" fill="none" stroke-dasharray="0 0"/></g><g style="" class="row-rect-even"><path d="M-123.390625 -21.375 L123.390625 -21.375 L123.390625 21.375 L-123.390625 21.375" stroke="none" stroke-width="0" fill="hsl(240, 100%, 97.2745098039%)"/><path d="M-123.390625 -21.375 C-54.627256480265686 -21.375, 14.136112039468628 -21.375, 123.390625 -21.375 M-123.390625 -21.375 C-73.50094696063721 -21.375, -23.611268921274416 -21.375, 123.390625 -21.375 M123.390625 -21.375 C123.390625 -5.47057660620942, 123.390625 10.43384678758116, 123.390625 21.375 M123.390625 -21.375 C123.390625 -7.263285280366386, 123.390625 6.848429439267228, 123.390625 21.375 M123.390625 21.375 C54.09335500958156 21.375, -15.203914980836885 21.375, -123.390625 21.375 M123.390625 21.375 C67.12461381852003 21.375, 10.858602637040079 21.375, -123.390625 21.375 M-123.390625 21.375 C-123.390625 5.381873982093268, -123.390625 -10.611252035813465, -123.390625 -21.375 M-123.390625 21.375 C-123.390625 6.937762369150995, -123.390625 -7.499475261698009, -123.390625 -21.375" stroke="#9370DB" stroke-width="1.3" fill="none" stroke-dasharray="0 0"/></g><g style="" class="row-rect-odd"><path d="M-123.390625 21.375 L123.390625 21.375 L123.390625 64.125 L-123.390625 64.125" stroke="none" stroke-width="0" fill="hsl(240, 100%, 100%)"/><path d="M-123.390625 21.375 C-29.796464243708755 21.375, 63.79769651258249 21.375, 123.390625 21.375 M-123.390625 21.375 C-54.07875395817311 21.375, 15.23311708365378 21.375, 123.390625 21.375 M123.390625 21.375 C123.390625 34.61280371246909, 123.390625 47.850607424938175, 123.390625 64.125 M123.390625 21.375 C123.390625 36.19979340607536, 123.390625 51.024586812150716, 123.390625 64.125 M123.390625 64.125 C38.685304835798135 64.125, -46.02001532840373 64.125, -123.390625 64.125 M123.390625 64.125 C71.45228535609832 64.125, 19.51394571219663 64.125, -123.390625 64.125 M-123.390625 64.125 C-123.390625 51.19185832494834, -123.390625 38.258716649896684, -123.390625 21.375 M-123.390625 64.125 C-123.390625 53.641191855485864, -123.390625 43.15738371097173, -123.390625 21.375" stroke="#9370DB" stroke-width="1.3" fill="none" stroke-dasharray="0 0"/></g><g style="" class="row-rect-even"><path d="M-123.390625 64.125 L123.390625 64.125 L123.390625 106.875 L-123.390625 106.875" stroke="none" stroke-width="0" fill="hsl(240, 100%, 97.2745098039%)"/><path d="M-123.390625 64.125 C-43.19354999054508 64.125, 37.00352501890984 64.125, 123.390625 64.125 M-123.390625 64.125 C-28.007697792745816 64.125, 67.37522941450837 64.125, 123.390625 64.125 M123.390625 64.125 C123.390625 74.08840950355078, 123.390625 84.05181900710156, 123.390625 106.875 M123.390625 64.125 C123.390625 80.15644445684673, 123.390625 96.18788891369346, 123.390625 106.875 M123.390625 106.875 C41.24657982042524 106.875, -40.89746535914952 106.875, -123.390625 106.875 M123.390625 106.875 C35.225780764306535 106.875, -52.93906347138693 106.875, -123.390625 106.875 M-123.390625 106.875 C-123.390625 96.95645027129973, -123.390625 87.03790054259946, -123.390625 64.125 M-123.390625 106.875 C-123.390625 97.61054705464564, -123.390625 88.34609410929127, -123.390625 64.125" stroke="#9370DB" stroke-width="1.3" fill="none" stroke-dasharray="0 0"/></g><g class="label name" transform="translate(-28.1953125, -97.5)" style=""><foreignObject width="56.390625" height="24"><div xmlns="http://www.w3.org/1999/xhtml" style="display: table-cell; white-space: nowrap; line-height: 1.5; max-width: 164px; text-align: start;"><span class="nodeLabel"><p>WINNER</p></span></div></foreignObject></g><g class="label attribute-type" transform="translate(-110.890625, -54.75)" style=""><foreignObject width="41.15625" height="24"><div xmlns="http://www.w3.org/1999/xhtml" style="display: table-cell; white-space: nowrap; line-height: 1.5; max-width: 137px; text-align: start;"><span class="nodeLabel"><p>bigint</p></span></div></foreignObject></g><g class="label attribute-name" transform="translate(-26.375, -54.75)" style=""><foreignObject width="14.265625" height="24"><div xmlns="http://www.w3.org/1999/xhtml" style="display: table-cell; white-space: nowrap; line-height: 1.5; max-width: 117px; text-align: start;"><span class="nodeLabel"><p>ID</p></span></div></foreignObject></g><g class="label attribute-keys" transform="translate(92.75, -54.75)" style=""><foreignObject width="18.140625" height="24"><div xmlns="http://www.w3.org/1999/xhtml" style="display: table-cell; white-space: nowrap; line-height: 1.5; max-width: 121px; text-align: start;"><span class="nodeLabel"><p>PK</p></span></div></foreignObject></g><g class="label attribute-comment" transform="translate(135.890625, -54.75)" style=""><foreignObject width="0" height="0"><div xmlns="http://www.w3.org/1999/xhtml" style="display: table-cell; white-space: nowrap; line-height: 1.5; max-width: 100px; text-align: start;"><span class="nodeLabel"></span></div></foreignObject></g><g class="label attribute-type" transform="translate(-110.890625, -12)" style=""><foreignObject width="29.4375" height="24"><div xmlns="http://www.w3.org/1999/xhtml" style="display: table-cell; white-space: nowrap; line-height: 1.5; max-width: 124px; text-align: start;"><span class="nodeLabel"><p>text</p></span></div></foreignObject></g><g class="label attribute-name" transform="translate(-26.375, -12)" style=""><foreignObject width="69.40625" height="24"><div xmlns="http://www.w3.org/1999/xhtml" style="display: table-cell; white-space: nowrap; line-height: 1.5; max-width: 160px; text-align: start;"><span class="nodeLabel"><p>post_title</p></span></div></foreignObject></g><g class="label attribute-keys" transform="translate(92.75, -12)" style=""><foreignObject width="0" height="0"><div xmlns="http://www.w3.org/1999/xhtml" style="display: table-cell; white-space: nowrap; line-height: 1.5; max-width: 100px; text-align: start;"><span class="nodeLabel"></span></div></foreignObject></g><g class="label attribute-comment" transform="translate(135.890625, -12)" style=""><foreignObject width="0" height="0"><div xmlns="http://www.w3.org/1999/xhtml" style="display: table-cell; white-space: nowrap; line-height: 1.5; max-width: 100px; text-align: start;"><span class="nodeLabel"></span></div></foreignObject></g><g class="label attribute-type" transform="translate(-110.890625, 30.75)" style=""><foreignObject width="59.515625" height="24"><div xmlns="http://www.w3.org/1999/xhtml" style="display: table-cell; white-space: nowrap; line-height: 1.5; max-width: 152px; text-align: start;"><span class="nodeLabel"><p>longtext</p></span></div></foreignObject></g><g class="label attribute-name" transform="translate(-26.375, 30.75)" style=""><foreignObject width="94.125" height="24"><div xmlns="http://www.w3.org/1999/xhtml" style="display: table-cell; white-space: nowrap; line-height: 1.5; max-width: 182px; text-align: start;"><span class="nodeLabel"><p>post_content</p></span></div></foreignObject></g><g class="label attribute-keys" transform="translate(92.75, 30.75)" style=""><foreignObject width="0" height="0"><div xmlns="http://www.w3.org/1999/xhtml" style="display: table-cell; white-space: nowrap; line-height: 1.5; max-width: 100px; text-align: start;"><span class="nodeLabel"></span></div></foreignObject></g><g class="label attribute-comment" transform="translate(135.890625, 30.75)" style=""><foreignObject width="0" height="0"><div xmlns="http://www.w3.org/1999/xhtml" style="display: table-cell; white-space: nowrap; line-height: 1.5; max-width: 100px; text-align: start;"><span class="nodeLabel"></span></div></foreignObject></g><g class="label attribute-type" transform="translate(-110.890625, 73.5)" style=""><foreignObject width="53.75" height="24"><div xmlns="http://www.w3.org/1999/xhtml" style="display: table-cell; white-space: nowrap; line-height: 1.5; max-width: 148px; text-align: start;"><span class="nodeLabel"><p>varchar</p></span></div></foreignObject></g><g class="label attribute-name" transform="translate(-26.375, 73.5)" style=""><foreignObject width="70.59375" height="24"><div xmlns="http://www.w3.org/1999/xhtml" style="display: table-cell; white-space: nowrap; line-height: 1.5; max-width: 162px; text-align: start;"><span class="nodeLabel"><p>post_type</p></span></div></foreignObject></g><g class="label attribute-keys" transform="translate(92.75, 73.5)" style=""><foreignObject width="0" height="0"><div xmlns="http://www.w3.org/1999/xhtml" style="display: table-cell; white-space: nowrap; line-height: 1.5; max-width: 100px; text-align: start;"><span class="nodeLabel"></span></div></foreignObject></g><g class="label attribute-comment" transform="translate(135.890625, 73.5)" style=""><foreignObject width="0" height="0"><div xmlns="http://www.w3.org/1999/xhtml" style="display: table-cell; white-space: nowrap; line-height: 1.5; max-width: 100px; text-align: start;"><span class="nodeLabel"></span></div></foreignObject></g><g class="divider"><path d="M-123.390625 -64.125 C-31.898682112470752 -64.125, 59.593260775058496 -64.125, 123.390625 -64.125 M-123.390625 -64.125 C-73.40484813504122 -64.125, -23.41907127008244 -64.125, 123.390625 -64.125" stroke="#9370DB" stroke-width="1.3" fill="none" stroke-dasharray="0 0"/></g><g class="divider"><path d="M-38.875 -64.125 C-38.875 -5.3160733249594045, -38.875 53.49285335008119, -38.875 106.875 M-38.875 -64.125 C-38.875 -16.0335980675544, -38.875 32.0578038648912, -38.875 106.875" stroke="#9370DB" stroke-width="1.3" fill="none" stroke-dasharray="0 0"/></g><g class="divider"><path d="M80.25 -64.125 C80.25 -4.357286956861799, 80.25 55.4104260862764, 80.25 106.875 M80.25 -64.125 C80.25 -2.079776054699252, 80.25 59.965447890601496, 80.25 106.875" stroke="#9370DB" stroke-width="1.3" fill="none" stroke-dasharray="0 0"/></g><g class="divider"><path d="M-123.390625 -64.125 C-35.80960176059479 -64.125, 51.771421478810424 -64.125, 123.390625 -64.125 M-123.390625 -64.125 C-57.74723592535072 -64.125, 7.896153149298556 -64.125, 123.390625 -64.125" stroke="#9370DB" stroke-width="1.3" fill="none" stroke-dasharray="0 0"/></g></g><g class="node default" id="entity-POSTMETA-1" transform="translate(126.1171875, 429.625)"><g style=""><path d="M-118.1171875 -106.875 L118.1171875 -106.875 L118.1171875 106.875 L-118.1171875 106.875" stroke="none" stroke-width="0" fill="#ECECFF"/><path d="M-118.1171875 -106.875 C-35.0204379337674 -106.875, 48.076311632465206 -106.875, 118.1171875 -106.875 M-118.1171875 -106.875 C-60.21193012711711 -106.875, -2.3066727542342136 -106.875, 118.1171875 -106.875 M118.1171875 -106.875 C118.1171875 -43.16347147166185, 118.1171875 20.5480570566763, 118.1171875 106.875 M118.1171875 -106.875 C118.1171875 -48.408687003869275, 118.1171875 10.05762599226145, 118.1171875 106.875 M118.1171875 106.875 C64.76085153133354 106.875, 11.404515562667086 106.875, -118.1171875 106.875 M118.1171875 106.875 C63.55249133639281 106.875, 8.987795172785624 106.875, -118.1171875 106.875 M-118.1171875 106.875 C-118.1171875 50.099440606879796, -118.1171875 -6.6761187862404086, -118.1171875 -106.875 M-118.1171875 106.875 C-118.1171875 55.35067401612195, -118.1171875 3.8263480322438994, -118.1171875 -106.875" stroke="#9370DB" stroke-width="1.3" fill="none" stroke-dasharray="0 0"/></g><g style="" class="row-rect-odd"><path d="M-118.1171875 -64.125 L118.1171875 -64.125 L118.1171875 -21.375 L-118.1171875 -21.375" stroke="none" stroke-width="0" fill="hsl(240, 100%, 100%)"/><path d="M-118.1171875 -64.125 C-52.12249114621859 -64.125, 13.872205207562814 -64.125, 118.1171875 -64.125 M-118.1171875 -64.125 C-54.48989298637512 -64.125, 9.137401527249764 -64.125, 118.1171875 -64.125 M118.1171875 -64.125 C118.1171875 -48.967579566776045, 118.1171875 -33.81015913355209, 118.1171875 -21.375 M118.1171875 -64.125 C118.1171875 -50.50068042905805, 118.1171875 -36.87636085811611, 118.1171875 -21.375 M118.1171875 -21.375 C41.863114606571145 -21.375, -34.39095828685771 -21.375, -118.1171875 -21.375 M118.1171875 -21.375 C51.59658446403198 -21.375, -14.924018571936045 -21.375, -118.1171875 -21.375 M-118.1171875 -21.375 C-118.1171875 -31.745411152546996, -118.1171875 -42.11582230509399, -118.1171875 -64.125 M-118.1171875 -21.375 C-118.1171875 -32.323233368724715, -118.1171875 -43.27146673744944, -118.1171875 -64.125" stroke="#9370DB" stroke-width="1.3" fill="none" stroke-dasharray="0 0"/></g><g style="" class="row-rect-even"><path d="M-118.1171875 -21.375 L118.1171875 -21.375 L118.1171875 21.375 L-118.1171875 21.375" stroke="none" stroke-width="0" fill="hsl(240, 100%, 97.2745098039%)"/><path d="M-118.1171875 -21.375 C-55.79445783023718 -21.375, 6.528271839525644 -21.375, 118.1171875 -21.375 M-118.1171875 -21.375 C-26.00384874252721 -21.375, 66.10949001494558 -21.375, 118.1171875 -21.375 M118.1171875 -21.375 C118.1171875 -9.881531335164071, 118.1171875 1.611937329671857, 118.1171875 21.375 M118.1171875 -21.375 C118.1171875 -10.918867889158188, 118.1171875 -0.46273577831637525, 118.1171875 21.375 M118.1171875 21.375 C31.232036263266835 21.375, -55.65311497346633 21.375, -118.1171875 21.375 M118.1171875 21.375 C36.6498673590646 21.375, -44.8174527818708 21.375, -118.1171875 21.375 M-118.1171875 21.375 C-118.1171875 6.71927682049615, -118.1171875 -7.9364463590077, -118.1171875 -21.375 M-118.1171875 21.375 C-118.1171875 11.890667174893089, -118.1171875 2.406334349786178, -118.1171875 -21.375" stroke="#9370DB" stroke-width="1.3" fill="none" stroke-dasharray="0 0"/></g><g style="" class="row-rect-odd"><path d="M-118.1171875 21.375 L118.1171875 21.375 L118.1171875 64.125 L-118.1171875 64.125" stroke="none" stroke-width="0" fill="hsl(240, 100%, 100%)"/><path d="M-118.1171875 21.375 C-35.97489525381094 21.375, 46.167396992378116 21.375, 118.1171875 21.375 M-118.1171875 21.375 C-27.89802183516639 21.375, 62.32114382966722 21.375, 118.1171875 21.375 M118.1171875 21.375 C118.1171875 32.514691364721344, 118.1171875 43.65438272944269, 118.1171875 64.125 M118.1171875 21.375 C118.1171875 35.246195067419805, 118.1171875 49.11739013483961, 118.1171875 64.125 M118.1171875 64.125 C31.522563354652092 64.125, -55.072060790695815 64.125, -118.1171875 64.125 M118.1171875 64.125 C30.887097749002336 64.125, -56.34299200199533 64.125, -118.1171875 64.125 M-118.1171875 64.125 C-118.1171875 48.14283757278121, -118.1171875 32.16067514556242, -118.1171875 21.375 M-118.1171875 64.125 C-118.1171875 54.33863669405632, -118.1171875 44.55227338811264, -118.1171875 21.375" stroke="#9370DB" stroke-width="1.3" fill="none" stroke-dasharray="0 0"/></g><g style="" class="row-rect-even"><path d="M-118.1171875 64.125 L118.1171875 64.125 L118.1171875 106.875 L-118.1171875 106.875" stroke="none" stroke-width="0" fill="hsl(240, 100%, 97.2745098039%)"/><path d="M-118.1171875 64.125 C-69.48690483410387 64.125, -20.856622168207736 64.125, 118.1171875 64.125 M-118.1171875 64.125 C-69.27024910715457 64.125, -20.423310714309153 64.125, 118.1171875 64.125 M118.1171875 64.125 C118.1171875 75.43114159287761, 118.1171875 86.73728318575522, 118.1171875 106.875 M118.1171875 64.125 C118.1171875 76.03950244458194, 118.1171875 87.95400488916388, 118.1171875 106.875 M118.1171875 106.875 C50.549866358793565 106.875, -17.01745478241287 106.875, -118.1171875 106.875 M118.1171875 106.875 C67.99666560821481 106.875, 17.876143716429638 106.875, -118.1171875 106.875 M-118.1171875 106.875 C-118.1171875 92.15281920992952, -118.1171875 77.43063841985904, -118.1171875 64.125 M-118.1171875 106.875 C-118.1171875 91.14517101727729, -118.1171875 75.41534203455458, -118.1171875 64.125" stroke="#9370DB" stroke-width="1.3" fill="none" stroke-dasharray="0 0"/></g><g class="label name" transform="translate(-36.890625, -97.5)" style=""><foreignObject width="73.78125" height="24"><div xmlns="http://www.w3.org/1999/xhtml" style="display: table-cell; white-space: nowrap; line-height: 1.5; max-width: 183px; text-align: start;"><span class="nodeLabel"><p>POSTMETA</p></span></div></foreignObject></g><g class="label attribute-type" transform="translate(-105.6171875, -54.75)" style=""><foreignObject width="41.15625" height="24"><div xmlns="http://www.w3.org/1999/xhtml" style="display: table-cell; white-space: nowrap; line-height: 1.5; max-width: 137px; text-align: start;"><span class="nodeLabel"><p>bigint</p></span></div></foreignObject></g><g class="label attribute-name" transform="translate(-21.1015625, -54.75)" style=""><foreignObject width="58.625" height="24"><div xmlns="http://www.w3.org/1999/xhtml" style="display: table-cell; white-space: nowrap; line-height: 1.5; max-width: 152px; text-align: start;"><span class="nodeLabel"><p>meta_id</p></span></div></foreignObject></g><g class="label attribute-keys" transform="translate(87.4765625, -54.75)" style=""><foreignObject width="18.140625" height="24"><div xmlns="http://www.w3.org/1999/xhtml" style="display: table-cell; white-space: nowrap; line-height: 1.5; max-width: 121px; text-align: start;"><span class="nodeLabel"><p>PK</p></span></div></foreignObject></g><g class="label attribute-comment" transform="translate(130.6171875, -54.75)" style=""><foreignObject width="0" height="0"><div xmlns="http://www.w3.org/1999/xhtml" style="display: table-cell; white-space: nowrap; line-height: 1.5; max-width: 100px; text-align: start;"><span class="nodeLabel"></span></div></foreignObject></g><g class="label attribute-type" transform="translate(-105.6171875, -12)" style=""><foreignObject width="41.15625" height="24"><div xmlns="http://www.w3.org/1999/xhtml" style="display: table-cell; white-space: nowrap; line-height: 1.5; max-width: 137px; text-align: start;"><span class="nodeLabel"><p>bigint</p></span></div></foreignObject></g><g class="label attribute-name" transform="translate(-21.1015625, -12)" style=""><foreignObject width="52.1875" height="24"><div xmlns="http://www.w3.org/1999/xhtml" style="display: table-cell; white-space: nowrap; line-height: 1.5; max-width: 147px; text-align: start;"><span class="nodeLabel"><p>post_id</p></span></div></foreignObject></g><g class="label attribute-keys" transform="translate(87.4765625, -12)" style=""><foreignObject width="17.609375" height="24"><div xmlns="http://www.w3.org/1999/xhtml" style="display: table-cell; white-space: nowrap; line-height: 1.5; max-width: 121px; text-align: start;"><span class="nodeLabel"><p>FK</p></span></div></foreignObject></g><g class="label attribute-comment" transform="translate(130.6171875, -12)" style=""><foreignObject width="0" height="0"><div xmlns="http://www.w3.org/1999/xhtml" style="display: table-cell; white-space: nowrap; line-height: 1.5; max-width: 100px; text-align: start;"><span class="nodeLabel"></span></div></foreignObject></g><g class="label attribute-type" transform="translate(-105.6171875, 30.75)" style=""><foreignObject width="53.75" height="24"><div xmlns="http://www.w3.org/1999/xhtml" style="display: table-cell; white-space: nowrap; line-height: 1.5; max-width: 148px; text-align: start;"><span class="nodeLabel"><p>varchar</p></span></div></foreignObject></g><g class="label attribute-name" transform="translate(-21.1015625, 30.75)" style=""><foreignObject width="69.84375" height="24"><div xmlns="http://www.w3.org/1999/xhtml" style="display: table-cell; white-space: nowrap; line-height: 1.5; max-width: 162px; text-align: start;"><span class="nodeLabel"><p>meta_key</p></span></div></foreignObject></g><g class="label attribute-keys" transform="translate(87.4765625, 30.75)" style=""><foreignObject width="0" height="0"><div xmlns="http://www.w3.org/1999/xhtml" style="display: table-cell; white-space: nowrap; line-height: 1.5; max-width: 100px; text-align: start;"><span class="nodeLabel"></span></div></foreignObject></g><g class="label attribute-comment" transform="translate(130.6171875, 30.75)" style=""><foreignObject width="0" height="0"><div xmlns="http://www.w3.org/1999/xhtml" style="display: table-cell; white-space: nowrap; line-height: 1.5; max-width: 100px; text-align: start;"><span class="nodeLabel"></span></div></foreignObject></g><g class="label attribute-type" transform="translate(-105.6171875, 73.5)" style=""><foreignObject width="59.515625" height="24"><div xmlns="http://www.w3.org/1999/xhtml" style="display: table-cell; white-space: nowrap; line-height: 1.5; max-width: 152px; text-align: start;"><span class="nodeLabel"><p>longtext</p></span></div></foreignObject></g><g class="label attribute-name" transform="translate(-21.1015625, 73.5)" style=""><foreignObject width="83.578125" height="24"><div xmlns="http://www.w3.org/1999/xhtml" style="display: table-cell; white-space: nowrap; line-height: 1.5; max-width: 174px; text-align: start;"><span class="nodeLabel"><p>meta_value</p></span></div></foreignObject></g><g class="label attribute-keys" transform="translate(87.4765625, 73.5)" style=""><foreignObject width="0" height="0"><div xmlns="http://www.w3.org/1999/xhtml" style="display: table-cell; white-space: nowrap; line-height: 1.5; max-width: 100px; text-align: start;"><span class="nodeLabel"></span></div></foreignObject></g><g class="label attribute-comment" transform="translate(130.6171875, 73.5)" style=""><foreignObject width="0" height="0"><div xmlns="http://www.w3.org/1999/xhtml" style="display: table-cell; white-space: nowrap; line-height: 1.5; max-width: 100px; text-align: start;"><span class="nodeLabel"></span></div></foreignObject></g><g class="divider"><path d="M-118.1171875 -64.125 C-60.52907502473152 -64.125, -2.9409625494630376 -64.125, 118.1171875 -64.125 M-118.1171875 -64.125 C-56.906291172570754 -64.125, 4.304605154858493 -64.125, 118.1171875 -64.125" stroke="#9370DB" stroke-width="1.3" fill="none" stroke-dasharray="0 0"/></g><g class="divider"><path d="M-33.6015625 -64.125 C-33.6015625 -6.869804191215799, -33.6015625 50.3853916175684, -33.6015625 106.875 M-33.6015625 -64.125 C-33.6015625 -16.25178018382976, -33.6015625 31.621439632340483, -33.6015625 106.875" stroke="#9370DB" stroke-width="1.3" fill="none" stroke-dasharray="0 0"/></g><g class="divider"><path d="M74.9765625 -64.125 C74.9765625 -24.640226572266407, 74.9765625 14.844546855467186, 74.9765625 106.875 M74.9765625 -64.125 C74.9765625 -7.384033660084057, 74.9765625 49.356932679831885, 74.9765625 106.875" stroke="#9370DB" stroke-width="1.3" fill="none" stroke-dasharray="0 0"/></g><g class="divider"><path d="M-118.1171875 -64.125 C-57.01338749622948 -64.125, 4.090412507541046 -64.125, 118.1171875 -64.125 M-118.1171875 -64.125 C-57.314997526663554 -64.125, 3.4871924466728927 -64.125, 118.1171875 -64.125" stroke="#9370DB" stroke-width="1.3" fill="none" stroke-dasharray="0 0"/></g></g><g class="node default" id="entity-ATTACHMENT-2" transform="translate(517.09375, 429.625)"><g style=""><path d="M-132.859375 -85.5 L132.859375 -85.5 L132.859375 85.5 L-132.859375 85.5" stroke="none" stroke-width="0" fill="#ECECFF"/><path d="M-132.859375 -85.5 C-44.74346464045114 -85.5, 43.372445719097726 -85.5, 132.859375 -85.5 M-132.859375 -85.5 C-26.65984017027641 -85.5, 79.53969465944718 -85.5, 132.859375 -85.5 M132.859375 -85.5 C132.859375 -32.73146750187771, 132.859375 20.03706499624458, 132.859375 85.5 M132.859375 -85.5 C132.859375 -33.115700245190006, 132.859375 19.26859950961999, 132.859375 85.5 M132.859375 85.5 C55.78017360529647 85.5, -21.299027789407063 85.5, -132.859375 85.5 M132.859375 85.5 C66.21797984966352 85.5, -0.4234153006729571 85.5, -132.859375 85.5 M-132.859375 85.5 C-132.859375 18.84755412024495, -132.859375 -47.8048917595101, -132.859375 -85.5 M-132.859375 85.5 C-132.859375 27.11959777483724, -132.859375 -31.260804450325523, -132.859375 -85.5" stroke="#9370DB" stroke-width="1.3" fill="none" stroke-dasharray="0 0"/></g><g style="" class="row-rect-odd"><path d="M-132.859375 -42.75 L132.859375 -42.75 L132.859375 0 L-132.859375 0" stroke="none" stroke-width="0" fill="hsl(240, 100%, 100%)"/><path d="M-132.859375 -42.75 C-34.08632480520659 -42.75, 64.68672538958683 -42.75, 132.859375 -42.75 M-132.859375 -42.75 C-54.50570453718598 -42.75, 23.847965925628046 -42.75, 132.859375 -42.75 M132.859375 -42.75 C132.859375 -29.824730000632197, 132.859375 -16.899460001264394, 132.859375 0 M132.859375 -42.75 C132.859375 -33.16577170209417, 132.859375 -23.581543404188334, 132.859375 0 M132.859375 0 C63.19863890737574 0, -6.462097185248524 0, -132.859375 0 M132.859375 0 C26.73947601645149 0, -79.38042296709702 0, -132.859375 0 M-132.859375 0 C-132.859375 -10.331406770369652, -132.859375 -20.662813540739304, -132.859375 -42.75 M-132.859375 0 C-132.859375 -11.47515707685716, -132.859375 -22.95031415371432, -132.859375 -42.75" stroke="#9370DB" stroke-width="1.3" fill="none" stroke-dasharray="0 0"/></g><g style="" class="row-rect-even"><path d="M-132.859375 0 L132.859375 0 L132.859375 42.75 L-132.859375 42.75" stroke="none" stroke-width="0" fill="hsl(240, 100%, 97.2745098039%)"/><path d="M-132.859375 0 C-50.52677152521477 0, 31.80583194957046 0, 132.859375 0 M-132.859375 0 C-75.26671127413496 0, -17.67404754826994 0, 132.859375 0 M132.859375 0 C132.859375 15.242401379267303, 132.859375 30.484802758534606, 132.859375 42.75 M132.859375 0 C132.859375 12.45565331536458, 132.859375 24.91130663072916, 132.859375 42.75 M132.859375 42.75 C63.77405934996057 42.75, -5.311256300078867 42.75, -132.859375 42.75 M132.859375 42.75 C38.914732496367705 42.75, -55.02991000726459 42.75, -132.859375 42.75 M-132.859375 42.75 C-132.859375 30.064315637787917, -132.859375 17.378631275575835, -132.859375 0 M-132.859375 42.75 C-132.859375 33.713385675715365, -132.859375 24.676771351430727, -132.859375 0" stroke="#9370DB" stroke-width="1.3" fill="none" stroke-dasharray="0 0"/></g><g style="" class="row-rect-odd"><path d="M-132.859375 42.75 L132.859375 42.75 L132.859375 85.5 L-132.859375 85.5" stroke="none" stroke-width="0" fill="hsl(240, 100%, 100%)"/><path d="M-132.859375 42.75 C-46.725948951351 42.75, 39.407477097298 42.75, 132.859375 42.75 M-132.859375 42.75 C-62.26068784552834 42.75, 8.337999308943324 42.75, 132.859375 42.75 M132.859375 42.75 C132.859375 55.648572522375346, 132.859375 68.54714504475069, 132.859375 85.5 M132.859375 42.75 C132.859375 55.57975026200728, 132.859375 68.40950052401456, 132.859375 85.5 M132.859375 85.5 C52.41596507865421 85.5, -28.02744484269158 85.5, -132.859375 85.5 M132.859375 85.5 C54.35575747890313 85.5, -24.14786004219374 85.5, -132.859375 85.5 M-132.859375 85.5 C-132.859375 69.22520800089379, -132.859375 52.95041600178757, -132.859375 42.75 M-132.859375 85.5 C-132.859375 75.58087084044925, -132.859375 65.66174168089852, -132.859375 42.75" stroke="#9370DB" stroke-width="1.3" fill="none" stroke-dasharray="0 0"/></g><g class="label name" transform="translate(-46.90625, -76.125)" style=""><foreignObject width="93.8125" height="24"><div xmlns="http://www.w3.org/1999/xhtml" style="display: table-cell; white-space: nowrap; line-height: 1.5; max-width: 207px; text-align: start;"><span class="nodeLabel"><p>ATTACHMENT</p></span></div></foreignObject></g><g class="label attribute-type" transform="translate(-120.359375, -33.375)" style=""><foreignObject width="41.15625" height="24"><div xmlns="http://www.w3.org/1999/xhtml" style="display: table-cell; white-space: nowrap; line-height: 1.5; max-width: 137px; text-align: start;"><span class="nodeLabel"><p>bigint</p></span></div></foreignObject></g><g class="label attribute-name" transform="translate(-41.609375, -33.375)" style=""><foreignObject width="14.265625" height="24"><div xmlns="http://www.w3.org/1999/xhtml" style="display: table-cell; white-space: nowrap; line-height: 1.5; max-width: 117px; text-align: start;"><span class="nodeLabel"><p>ID</p></span></div></foreignObject></g><g class="label attribute-keys" transform="translate(102.21875, -33.375)" style=""><foreignObject width="18.140625" height="24"><div xmlns="http://www.w3.org/1999/xhtml" style="display: table-cell; white-space: nowrap; line-height: 1.5; max-width: 121px; text-align: start;"><span class="nodeLabel"><p>PK</p></span></div></foreignObject></g><g class="label attribute-comment" transform="translate(145.359375, -33.375)" style=""><foreignObject width="0" height="0"><div xmlns="http://www.w3.org/1999/xhtml" style="display: table-cell; white-space: nowrap; line-height: 1.5; max-width: 100px; text-align: start;"><span class="nodeLabel"></span></div></foreignObject></g><g class="label attribute-type" transform="translate(-120.359375, 9.375)" style=""><foreignObject width="53.75" height="24"><div xmlns="http://www.w3.org/1999/xhtml" style="display: table-cell; white-space: nowrap; line-height: 1.5; max-width: 148px; text-align: start;"><span class="nodeLabel"><p>varchar</p></span></div></foreignObject></g><g class="label attribute-name" transform="translate(-41.609375, 9.375)" style=""><foreignObject width="30.25" height="24"><div xmlns="http://www.w3.org/1999/xhtml" style="display: table-cell; white-space: nowrap; line-height: 1.5; max-width: 128px; text-align: start;"><span class="nodeLabel"><p>guid</p></span></div></foreignObject></g><g class="label attribute-keys" transform="translate(102.21875, 9.375)" style=""><foreignObject width="0" height="0"><div xmlns="http://www.w3.org/1999/xhtml" style="display: table-cell; white-space: nowrap; line-height: 1.5; max-width: 100px; text-align: start;"><span class="nodeLabel"></span></div></foreignObject></g><g class="label attribute-comment" transform="translate(145.359375, 9.375)" style=""><foreignObject width="0" height="0"><div xmlns="http://www.w3.org/1999/xhtml" style="display: table-cell; white-space: nowrap; line-height: 1.5; max-width: 100px; text-align: start;"><span class="nodeLabel"></span></div></foreignObject></g><g class="label attribute-type" transform="translate(-120.359375, 52.125)" style=""><foreignObject width="53.75" height="24"><div xmlns="http://www.w3.org/1999/xhtml" style="display: table-cell; white-space: nowrap; line-height: 1.5; max-width: 148px; text-align: start;"><span class="nodeLabel"><p>varchar</p></span></div></foreignObject></g><g class="label attribute-name" transform="translate(-41.609375, 52.125)" style=""><foreignObject width="118.828125" height="24"><div xmlns="http://www.w3.org/1999/xhtml" style="display: table-cell; white-space: nowrap; line-height: 1.5; max-width: 207px; text-align: start;"><span class="nodeLabel"><p>post_mime_type</p></span></div></foreignObject></g><g class="label attribute-keys" transform="translate(102.21875, 52.125)" style=""><foreignObject width="0" height="0"><div xmlns="http://www.w3.org/1999/xhtml" style="display: table-cell; white-space: nowrap; line-height: 1.5; max-width: 100px; text-align: start;"><span class="nodeLabel"></span></div></foreignObject></g><g class="label attribute-comment" transform="translate(145.359375, 52.125)" style=""><foreignObject width="0" height="0"><div xmlns="http://www.w3.org/1999/xhtml" style="display: table-cell; white-space: nowrap; line-height: 1.5; max-width: 100px; text-align: start;"><span class="nodeLabel"></span></div></foreignObject></g><g class="divider"><path d="M-132.859375 -42.75 C-69.98107527822482 -42.75, -7.102775556449643 -42.75, 132.859375 -42.75 M-132.859375 -42.75 C-76.86499310918384 -42.75, -20.870611218367685 -42.75, 132.859375 -42.75" stroke="#9370DB" stroke-width="1.3" fill="none" stroke-dasharray="0 0"/></g><g class="divider"><path d="M-54.109375 -42.75 C-54.109375 -12.68919497389249, -54.109375 17.37161005221502, -54.109375 85.5 M-54.109375 -42.75 C-54.109375 -15.634175402825878, -54.109375 11.481649194348243, -54.109375 85.5" stroke="#9370DB" stroke-width="1.3" fill="none" stroke-dasharray="0 0"/></g><g class="divider"><path d="M89.71875 -42.75 C89.71875 -10.264205609119308, 89.71875 22.221588781761383, 89.71875 85.5 M89.71875 -42.75 C89.71875 0.903794063894928, 89.71875 44.557588127789856, 89.71875 85.5" stroke="#9370DB" stroke-width="1.3" fill="none" stroke-dasharray="0 0"/></g><g class="divider"><path d="M-132.859375 -42.75 C-61.40376611216776 -42.75, 10.051842775664483 -42.75, 132.859375 -42.75 M-132.859375 -42.75 C-37.83331511230001 -42.75, 57.19274477539997 -42.75, 132.859375 -42.75" stroke="#9370DB" stroke-width="1.3" fill="none" stroke-dasharray="0 0"/></g></g></g></g></g></svg>