<svg id="my-svg" width="100%" xmlns="http://www.w3.org/2000/svg" xmlns:xlink="http://www.w3.org/1999/xlink" class="erDiagram" style="max-width: 515.675px; background-color: transparent;" viewBox="0 0 515.6749877929688 773.8999633789062" role="graphics-document document" aria-roledescription="er"><style>#my-svg{font-family:"trebuchet ms",verdana,arial,sans-serif;font-size:16px;fill:#333;}@keyframes edge-animation-frame{from{stroke-dashoffset:0;}}@keyframes dash{to{stroke-dashoffset:0;}}#my-svg .edge-animation-slow{stroke-dasharray:9,5!important;stroke-dashoffset:900;animation:dash 50s linear infinite;stroke-linecap:round;}#my-svg .edge-animation-fast{stroke-dasharray:9,5!important;stroke-dashoffset:900;animation:dash 20s linear infinite;stroke-linecap:round;}#my-svg .error-icon{fill:#552222;}#my-svg .error-text{fill:#552222;stroke:#552222;}#my-svg .edge-thickness-normal{stroke-width:1px;}#my-svg .edge-thickness-thick{stroke-width:3.5px;}#my-svg .edge-pattern-solid{stroke-dasharray:0;}#my-svg .edge-thickness-invisible{stroke-width:0;fill:none;}#my-svg .edge-pattern-dashed{stroke-dasharray:3;}#my-svg .edge-pattern-dotted{stroke-dasharray:2;}#my-svg .marker{fill:#333333;stroke:#333333;}#my-svg .marker.cross{stroke:#333333;}#my-svg svg{font-family:"trebuchet ms",verdana,arial,sans-serif;font-size:16px;}#my-svg p{margin:0;}#my-svg .entityBox{fill:#ECECFF;stroke:#9370DB;}#my-svg .relationshipLabelBox{fill:hsl(80, 100%, 96.2745098039%);opacity:0.7;background-color:hsl(80, 100%, 96.2745098039%);}#my-svg .relationshipLabelBox rect{opacity:0.5;}#my-svg .labelBkg{background-color:rgba(248.6666666666, 255, 235.9999999999, 0.5);}#my-svg .edgeLabel .label{fill:#9370DB;font-size:14px;}#my-svg .label{font-family:"trebuchet ms",verdana,arial,sans-serif;color:#333;}#my-svg .edge-pattern-dashed{stroke-dasharray:8,8;}#my-svg .node rect,#my-svg .node circle,#my-svg .node ellipse,#my-svg .node polygon{fill:#ECECFF;stroke:#9370DB;stroke-width:1px;}#my-svg .relationshipLine{stroke:#333333;stroke-width:1;fill:none;}#my-svg .marker{fill:none!important;stroke:#333333!important;stroke-width:1;}#my-svg :root{--mermaid-font-family:"trebuchet ms",verdana,arial,sans-serif;}</style><g><defs><marker id="my-svg_er-onlyOneStart" class="marker onlyOne er" refX="0" refY="9" markerWidth="18" markerHeight="18" orient="auto"><path d="M9,0 L9,18 M15,0 L15,18"/></marker></defs><defs><marker id="my-svg_er-onlyOneEnd" class="marker onlyOne er" refX="18" refY="9" markerWidth="18" markerHeight="18" orient="auto"><path d="M3,0 L3,18 M9,0 L9,18"/></marker></defs><defs><marker id="my-svg_er-zeroOrOneStart" class="marker zeroOrOne er" refX="0" refY="9" markerWidth="30" markerHeight="18" orient="auto"><circle fill="white" cx="21" cy="9" r="6"/><path d="M9,0 L9,18"/></marker></defs><defs><marker id="my-svg_er-zeroOrOneEnd" class="marker zeroOrOne er" refX="30" refY="9" markerWidth="30" markerHeight="18" orient="auto"><circle fill="white" cx="9" cy="9" r="6"/><path d="M21,0 L21,18"/></marker></defs><defs><marker id="my-svg_er-oneOrMoreStart" class="marker oneOrMore er" refX="18" refY="18" markerWidth="45" markerHeight="36" orient="auto"><path d="M0,18 Q 18,0 36,18 Q 18,36 0,18 M42,9 L42,27"/></marker></defs><defs><marker id="my-svg_er-oneOrMoreEnd" class="marker oneOrMore er" refX="27" refY="18" markerWidth="45" markerHeight="36" orient="auto"><path d="M3,9 L3,27 M9,18 Q27,0 45,18 Q27,36 9,18"/></marker></defs><defs><marker id="my-svg_er-zeroOrMoreStart" class="marker zeroOrMore er" refX="18" refY="18" markerWidth="57" markerHeight="36" orient="auto"><circle fill="white" cx="48" cy="18" r="6"/><path d="M0,18 Q18,0 36,18 Q18,36 0,18"/></marker></defs><defs><marker id="my-svg_er-zeroOrMoreEnd" class="marker zeroOrMore er" refX="39" refY="18" markerWidth="57" markerHeight="36" orient="auto"><circle fill="white" cx="9" cy="18" r="6"/><path d="M21,18 Q39,0 57,18 Q39,36 21,18"/></marker></defs><g class="root"><g class="clusters"/><g class="edgePaths"><path d="M260.894,284.866L238.431,304.138C215.968,323.41,171.043,361.955,148.58,389.644C126.117,417.333,126.117,434.167,126.117,442.583L126.117,451" id="id_entity-PAGE-0_entity-POSTMETA-1_0" class="edge-thickness-normal edge-pattern-solid relationshipLine" style="undefined;;;undefined" data-edge="true" data-et="edge" data-id="id_entity-PAGE-0_entity-POSTMETA-1_0" data-points="W3sieCI6MjYwLjg5Mzc1MDAwMDc0NTA2LCJ5IjoyODQuODY1NTk3MDI2ODE0N30seyJ4IjoxMjYuMTE3MTg3NSwieSI6NDAwLjV9LHsieCI6MTI2LjExNzE4NzUsInkiOjQ1MX1d" marker-start="url(#my-svg_er-onlyOneStart)" marker-end="url(#my-svg_er-zeroOrMoreEnd)"/><path d="M384.284,350L384.284,358.417C384.284,366.833,384.284,383.667,384.284,418.304C384.284,452.942,384.284,505.383,384.284,531.604L384.284,557.825" id="entity-PAGE-0-cyclic-special-1" class="edge-thickness-normal edge-pattern-solid relationshipLine" style="undefined;;;undefined" data-edge="true" data-et="edge" data-id="entity-PAGE-0-cyclic-special-1" data-points="W3sieCI6Mzg0LjI4NDM3NTAwMDc0NTA2LCJ5IjozNTB9LHsieCI6Mzg0LjI4NDM3NTAwMDc0NTA2LCJ5Ijo0MDAuNX0seyJ4IjozODQuMjg0Mzc1MDAwNzQ1MDYsInkiOjU1Ny44MjQ5OTk5OTkyNTQ5fV0=" marker-start="url(#my-svg_er-onlyOneStart)"/><path d="M384.284,557.925L384.284,584.146C384.284,610.367,384.284,662.808,390.949,697.446C397.613,732.083,410.941,748.917,417.606,757.333L424.27,765.75" id="entity-PAGE-0-cyclic-special-mid" class="edge-thickness-normal edge-pattern-solid relationshipLine" style="undefined;;;undefined" data-edge="true" data-et="edge" data-id="entity-PAGE-0-cyclic-special-mid" data-points="W3sieCI6Mzg0LjI4NDM3NTAwMDc0NTA2LCJ5Ijo1NTcuOTI1MDAwMDAwNzQ1MX0seyJ4IjozODQuMjg0Mzc1MDAwNzQ1MDYsInkiOjcxNS4yNX0seyJ4Ijo0MjQuMjY5Nzg1NDg1MTk2NSwieSI6NzY1Ljc1fV0="/><path d="M424.349,765.75L431.013,757.333C437.677,748.917,451.006,732.083,457.67,697.438C464.334,662.792,464.334,610.333,464.334,557.875C464.334,505.417,464.334,452.958,461.293,418.313C458.251,383.667,452.167,366.833,449.125,358.417L446.084,350" id="entity-PAGE-0-cyclic-special-2" class="edge-thickness-normal edge-pattern-solid relationshipLine" style="undefined;;;undefined" data-edge="true" data-et="edge" data-id="entity-PAGE-0-cyclic-special-2" data-points="W3sieCI6NDI0LjM0ODk2NDUxNzAzODY3LCJ5Ijo3NjUuNzV9LHsieCI6NDY0LjMzNDM3NTAwMTQ5MDEsInkiOjcxNS4yNX0seyJ4Ijo0NjQuMzM0Mzc1MDAxNDkwMSwieSI6NTU3Ljg3NX0seyJ4Ijo0NjQuMzM0Mzc1MDAxNDkwMSwieSI6NDAwLjV9LHsieCI6NDQ2LjA4MzY5NzgwMDQxNzMsInkiOjM1MH1d" marker-end="url(#my-svg_er-zeroOrOneEnd)"/></g><g class="edgeLabels"><g class="edgeLabel" transform="translate(126.1171875, 400.5)"><g class="label" data-id="id_entity-PAGE-0_entity-POSTMETA-1_0" transform="translate(-10.3359375, -10.5)"><foreignObject width="20.671875" height="21"><div xmlns="http://www.w3.org/1999/xhtml" class="labelBkg" style="display: table-cell; white-space: nowrap; line-height: 1.5; max-width: 200px; text-align: center;"><span class="edgeLabel"><p>has</p></span></div></foreignObject></g></g><g class="edgeLabel"><g class="label" data-id="entity-PAGE-0-cyclic-special-1" transform="translate(0, 0)"><foreignObject width="0" height="0"><div xmlns="http://www.w3.org/1999/xhtml" class="labelBkg" style="display: table-cell; white-space: nowrap; line-height: 1.5; max-width: 200px; text-align: center;"><span class="edgeLabel"></span></div></foreignObject></g></g><g class="edgeLabel" transform="translate(384.28437500074506, 715.25)"><g class="label" data-id="entity-PAGE-0-cyclic-special-mid" transform="translate(-37.65625, -10.5)"><foreignObject width="75.3125" height="21"><div xmlns="http://www.w3.org/1999/xhtml" class="labelBkg" style="display: table-cell; white-space: nowrap; line-height: 1.5; max-width: 200px; text-align: center;"><span class="edgeLabel"><p>post_parent</p></span></div></foreignObject></g></g><g class="edgeLabel"><g class="label" data-id="entity-PAGE-0-cyclic-special-2" transform="translate(0, 0)"><foreignObject width="0" height="0"><div xmlns="http://www.w3.org/1999/xhtml" class="labelBkg" style="display: table-cell; white-space: nowrap; line-height: 1.5; max-width: 200px; text-align: center;"><span class="edgeLabel"></span></div></foreignObject></g></g></g><g class="nodes"><g class="node default" id="entity-PAGE-0" transform="translate(384.28437500074506, 179)"><g style=""><path d="M-123.390625 -171 L123.390625 -171 L123.390625 171 L-123.390625 171" stroke="none" stroke-width="0" fill="#ECECFF"/><path d="M-123.390625 -171 C-46.584341005869746 -171, 30.22194298826051 -171, 123.390625 -171 M-123.390625 -171 C-61.742189419512584 -171, -0.09375383902516887 -171, 123.390625 -171 M123.390625 -171 C123.390625 -67.60683364163305, 123.390625 35.78633271673391, 123.390625 171 M123.390625 -171 C123.390625 -36.662777999981444, 123.390625 97.67444400003711, 123.390625 171 M123.390625 171 C52.40265196312062 171, -18.585321073758763 171, -123.390625 171 M123.390625 171 C25.777596071808404 171, -71.83543285638319 171, -123.390625 171 M-123.390625 171 C-123.390625 97.56497465722856, -123.390625 24.12994931445712, -123.390625 -171 M-123.390625 171 C-123.390625 34.7015738888752, -123.390625 -101.5968522222496, -123.390625 -171" stroke="#9370DB" stroke-width="1.3" fill="none" stroke-dasharray="0 0"/></g><g style="" class="row-rect-odd"><path d="M-123.390625 -128.25 L123.390625 -128.25 L123.390625 -85.5 L-123.390625 -85.5" stroke="none" stroke-width="0" fill="hsl(240, 100%, 100%)"/><path d="M-123.390625 -128.25 C-50.18054707349755 -128.25, 23.0295308530049 -128.25, 123.390625 -128.25 M-123.390625 -128.25 C-39.174810251205656 -128.25, 45.04100449758869 -128.25, 123.390625 -128.25 M123.390625 -128.25 C123.390625 -116.36045497053021, 123.390625 -104.47090994106044, 123.390625 -85.5 M123.390625 -128.25 C123.390625 -114.64395789893764, 123.390625 -101.03791579787529, 123.390625 -85.5 M123.390625 -85.5 C73.00795170711649 -85.5, 22.62527841423298 -85.5, -123.390625 -85.5 M123.390625 -85.5 C63.453146221145616 -85.5, 3.5156674422912317 -85.5, -123.390625 -85.5 M-123.390625 -85.5 C-123.390625 -99.47457775694888, -123.390625 -113.44915551389775, -123.390625 -128.25 M-123.390625 -85.5 C-123.390625 -97.79552836193967, -123.390625 -110.09105672387935, -123.390625 -128.25" stroke="#9370DB" stroke-width="1.3" fill="none" stroke-dasharray="0 0"/></g><g style="" class="row-rect-even"><path d="M-123.390625 -85.5 L123.390625 -85.5 L123.390625 -42.75 L-123.390625 -42.75" stroke="none" stroke-width="0" fill="hsl(240, 100%, 97.2745098039%)"/><path d="M-123.390625 -85.5 C-40.661552532425205 -85.5, 42.06751993514959 -85.5, 123.390625 -85.5 M-123.390625 -85.5 C-72.48758350412771 -85.5, -21.584542008255426 -85.5, 123.390625 -85.5 M123.390625 -85.5 C123.390625 -70.17144731498695, 123.390625 -54.842894629973884, 123.390625 -42.75 M123.390625 -85.5 C123.390625 -76.25787005093346, 123.390625 -67.01574010186694, 123.390625 -42.75 M123.390625 -42.75 C53.85861783498717 -42.75, -15.673389330025657 -42.75, -123.390625 -42.75 M123.390625 -42.75 C58.07219576145735 -42.75, -7.246233477085298 -42.75, -123.390625 -42.75 M-123.390625 -42.75 C-123.390625 -52.5275883570584, -123.390625 -62.3051767141168, -123.390625 -85.5 M-123.390625 -42.75 C-123.390625 -57.15991459337333, -123.390625 -71.56982918674666, -123.390625 -85.5" stroke="#9370DB" stroke-width="1.3" fill="none" stroke-dasharray="0 0"/></g><g style="" class="row-rect-odd"><path d="M-123.390625 -42.75 L123.390625 -42.75 L123.390625 0 L-123.390625 0" stroke="none" stroke-width="0" fill="hsl(240, 100%, 100%)"/><path d="M-123.390625 -42.75 C-49.019164645843205 -42.75, 25.35229570831359 -42.75, 123.390625 -42.75 M-123.390625 -42.75 C-50.92160007233386 -42.75, 21.54742485533228 -42.75, 123.390625 -42.75 M123.390625 -42.75 C123.390625 -26.256008664845705, 123.390625 -9.76201732969141, 123.390625 0 M123.390625 -42.75 C123.390625 -29.395343110741464, 123.390625 -16.040686221482932, 123.390625 0 M123.390625 0 C58.03557107128378 0, -7.319482857432433 0, -123.390625 0 M123.390625 0 C62.82628238994262 0, 2.261939779885239 0, -123.390625 0 M-123.390625 0 C-123.390625 -15.474557744751191, -123.390625 -30.949115489502383, -123.390625 -42.75 M-123.390625 0 C-123.390625 -9.026897668232651, -123.390625 -18.053795336465303, -123.390625 -42.75" stroke="#9370DB" stroke-width="1.3" fill="none" stroke-dasharray="0 0"/></g><g style="" class="row-rect-even"><path d="M-123.390625 0 L123.390625 0 L123.390625 42.75 L-123.390625 42.75" stroke="none" stroke-width="0" fill="hsl(240, 100%, 97.2745098039%)"/><path d="M-123.390625 0 C-31.608205000688756 0, 60.17421499862249 0, 123.390625 0 M-123.390625 0 C-57.61827385135172 0, 8.154077297296567 0, 123.390625 0 M123.390625 0 C123.390625 8.968164653577407, 123.390625 17.936329307154814, 123.390625 42.75 M123.390625 0 C123.390625 8.931694968725317, 123.390625 17.863389937450634, 123.390625 42.75 M123.390625 42.75 C71.72995564282873 42.75, 20.069286285657455 42.75, -123.390625 42.75 M123.390625 42.75 C39.410004714048654 42.75, -44.57061557190269 42.75, -123.390625 42.75 M-123.390625 42.75 C-123.390625 28.538789912256604, -123.390625 14.327579824513204, -123.390625 0 M-123.390625 42.75 C-123.390625 33.259092886624735, -123.390625 23.76818577324947, -123.390625 0" stroke="#9370DB" stroke-width="1.3" fill="none" stroke-dasharray="0 0"/></g><g style="" class="row-rect-odd"><path d="M-123.390625 42.75 L123.390625 42.75 L123.390625 85.5 L-123.390625 85.5" stroke="none" stroke-width="0" fill="hsl(240, 100%, 100%)"/><path d="M-123.390625 42.75 C-43.30484769937992 42.75, 36.78092960124016 42.75, 123.390625 42.75 M-123.390625 42.75 C-47.605436998601206 42.75, 28.179751002797587 42.75, 123.390625 42.75 M123.390625 42.75 C123.390625 56.59061164537565, 123.390625 70.4312232907513, 123.390625 85.5 M123.390625 42.75 C123.390625 55.96811559111653, 123.390625 69.18623118223306, 123.390625 85.5 M123.390625 85.5 C34.00309881722147 85.5, -55.38442736555706 85.5, -123.390625 85.5 M123.390625 85.5 C66.14272485535118 85.5, 8.894824710702352 85.5, -123.390625 85.5 M-123.390625 85.5 C-123.390625 76.26671258942301, -123.390625 67.03342517884602, -123.390625 42.75 M-123.390625 85.5 C-123.390625 69.58725622692593, -123.390625 53.67451245385186, -123.390625 42.75" stroke="#9370DB" stroke-width="1.3" fill="none" stroke-dasharray="0 0"/></g><g style="" class="row-rect-even"><path d="M-123.390625 85.5 L123.390625 85.5 L123.390625 128.25 L-123.390625 128.25" stroke="none" stroke-width="0" fill="hsl(240, 100%, 97.2745098039%)"/><path d="M-123.390625 85.5 C-41.35916177256202 85.5, 40.672301454875964 85.5, 123.390625 85.5 M-123.390625 85.5 C-38.938711537001026 85.5, 45.51320192599795 85.5, 123.390625 85.5 M123.390625 85.5 C123.390625 101.9473880160379, 123.390625 118.39477603207582, 123.390625 128.25 M123.390625 85.5 C123.390625 96.7235608853349, 123.390625 107.94712177066981, 123.390625 128.25 M123.390625 128.25 C72.21695883418593 128.25, 21.043292668371862 128.25, -123.390625 128.25 M123.390625 128.25 C33.633950478478255 128.25, -56.12272404304349 128.25, -123.390625 128.25 M-123.390625 128.25 C-123.390625 115.4719817714561, -123.390625 102.6939635429122, -123.390625 85.5 M-123.390625 128.25 C-123.390625 113.3751741774805, -123.390625 98.500348354961, -123.390625 85.5" stroke="#9370DB" stroke-width="1.3" fill="none" stroke-dasharray="0 0"/></g><g style="" class="row-rect-odd"><path d="M-123.390625 128.25 L123.390625 128.25 L123.390625 171 L-123.390625 171" stroke="none" stroke-width="0" fill="hsl(240, 100%, 100%)"/><path d="M-123.390625 128.25 C-37.43788978838835 128.25, 48.514845423223306 128.25, 123.390625 128.25 M-123.390625 128.25 C-43.193788064348254 128.25, 37.00304887130349 128.25, 123.390625 128.25 M123.390625 128.25 C123.390625 138.75293275475164, 123.390625 149.25586550950328, 123.390625 171 M123.390625 128.25 C123.390625 143.4901257496852, 123.390625 158.73025149937038, 123.390625 171 M123.390625 171 C72.36861959807476 171, 21.34661419614953 171, -123.390625 171 M123.390625 171 C71.78274342849397 171, 20.17486185698793 171, -123.390625 171 M-123.390625 171 C-123.390625 162.376457050482, -123.390625 153.752914100964, -123.390625 128.25 M-123.390625 171 C-123.390625 154.16258693127924, -123.390625 137.32517386255844, -123.390625 128.25" stroke="#9370DB" stroke-width="1.3" fill="none" stroke-dasharray="0 0"/></g><g class="label name" transform="translate(-17.984375, -161.625)" style=""><foreignObject width="35.96875" height="24"><div xmlns="http://www.w3.org/1999/xhtml" style="display: table-cell; white-space: nowrap; line-height: 1.5; max-width: 140px; text-align: start;"><span class="nodeLabel"><p>PAGE</p></span></div></foreignObject></g><g class="label attribute-type" transform="translate(-110.890625, -118.875)" style=""><foreignObject width="41.15625" height="24"><div xmlns="http://www.w3.org/1999/xhtml" style="display: table-cell; white-space: nowrap; line-height: 1.5; max-width: 137px; text-align: start;"><span class="nodeLabel"><p>bigint</p></span></div></foreignObject></g><g class="label attribute-name" transform="translate(-26.375, -118.875)" style=""><foreignObject width="14.265625" height="24"><div xmlns="http://www.w3.org/1999/xhtml" style="display: table-cell; white-space: nowrap; line-height: 1.5; max-width: 117px; text-align: start;"><span class="nodeLabel"><p>ID</p></span></div></foreignObject></g><g class="label attribute-keys" transform="translate(92.75, -118.875)" style=""><foreignObject width="18.140625" height="24"><div xmlns="http://www.w3.org/1999/xhtml" style="display: table-cell; white-space: nowrap; line-height: 1.5; max-width: 121px; text-align: start;"><span class="nodeLabel"><p>PK</p></span></div></foreignObject></g><g class="label attribute-comment" transform="translate(135.890625, -118.875)" style=""><foreignObject width="0" height="0"><div xmlns="http://www.w3.org/1999/xhtml" style="display: table-cell; white-space: nowrap; line-height: 1.5; max-width: 100px; text-align: start;"><span class="nodeLabel"></span></div></foreignObject></g><g class="label attribute-type" transform="translate(-110.890625, -76.125)" style=""><foreignObject width="29.4375" height="24"><div xmlns="http://www.w3.org/1999/xhtml" style="display: table-cell; white-space: nowrap; line-height: 1.5; max-width: 124px; text-align: start;"><span class="nodeLabel"><p>text</p></span></div></foreignObject></g><g class="label attribute-name" transform="translate(-26.375, -76.125)" style=""><foreignObject width="69.40625" height="24"><div xmlns="http://www.w3.org/1999/xhtml" style="display: table-cell; white-space: nowrap; line-height: 1.5; max-width: 160px; text-align: start;"><span class="nodeLabel"><p>post_title</p></span></div></foreignObject></g><g class="label attribute-keys" transform="translate(92.75, -76.125)" style=""><foreignObject width="0" height="0"><div xmlns="http://www.w3.org/1999/xhtml" style="display: table-cell; white-space: nowrap; line-height: 1.5; max-width: 100px; text-align: start;"><span class="nodeLabel"></span></div></foreignObject></g><g class="label attribute-comment" transform="translate(135.890625, -76.125)" style=""><foreignObject width="0" height="0"><div xmlns="http://www.w3.org/1999/xhtml" style="display: table-cell; white-space: nowrap; line-height: 1.5; max-width: 100px; text-align: start;"><span class="nodeLabel"></span></div></foreignObject></g><g class="label attribute-type" transform="translate(-110.890625, -33.375)" style=""><foreignObject width="59.515625" height="24"><div xmlns="http://www.w3.org/1999/xhtml" style="display: table-cell; white-space: nowrap; line-height: 1.5; max-width: 152px; text-align: start;"><span class="nodeLabel"><p>longtext</p></span></div></foreignObject></g><g class="label attribute-name" transform="translate(-26.375, -33.375)" style=""><foreignObject width="94.125" height="24"><div xmlns="http://www.w3.org/1999/xhtml" style="display: table-cell; white-space: nowrap; line-height: 1.5; max-width: 182px; text-align: start;"><span class="nodeLabel"><p>post_content</p></span></div></foreignObject></g><g class="label attribute-keys" transform="translate(92.75, -33.375)" style=""><foreignObject width="0" height="0"><div xmlns="http://www.w3.org/1999/xhtml" style="display: table-cell; white-space: nowrap; line-height: 1.5; max-width: 100px; text-align: start;"><span class="nodeLabel"></span></div></foreignObject></g><g class="label attribute-comment" transform="translate(135.890625, -33.375)" style=""><foreignObject width="0" height="0"><div xmlns="http://www.w3.org/1999/xhtml" style="display: table-cell; white-space: nowrap; line-height: 1.5; max-width: 100px; text-align: start;"><span class="nodeLabel"></span></div></foreignObject></g><g class="label attribute-type" transform="translate(-110.890625, 9.375)" style=""><foreignObject width="53.75" height="24"><div xmlns="http://www.w3.org/1999/xhtml" style="display: table-cell; white-space: nowrap; line-height: 1.5; max-width: 148px; text-align: start;"><span class="nodeLabel"><p>varchar</p></span></div></foreignObject></g><g class="label attribute-name" transform="translate(-26.375, 9.375)" style=""><foreignObject width="77.875" height="24"><div xmlns="http://www.w3.org/1999/xhtml" style="display: table-cell; white-space: nowrap; line-height: 1.5; max-width: 169px; text-align: start;"><span class="nodeLabel"><p>post_name</p></span></div></foreignObject></g><g class="label attribute-keys" transform="translate(92.75, 9.375)" style=""><foreignObject width="0" height="0"><div xmlns="http://www.w3.org/1999/xhtml" style="display: table-cell; white-space: nowrap; line-height: 1.5; max-width: 100px; text-align: start;"><span class="nodeLabel"></span></div></foreignObject></g><g class="label attribute-comment" transform="translate(135.890625, 9.375)" style=""><foreignObject width="0" height="0"><div xmlns="http://www.w3.org/1999/xhtml" style="display: table-cell; white-space: nowrap; line-height: 1.5; max-width: 100px; text-align: start;"><span class="nodeLabel"></span></div></foreignObject></g><g class="label attribute-type" transform="translate(-110.890625, 52.125)" style=""><foreignObject width="53.75" height="24"><div xmlns="http://www.w3.org/1999/xhtml" style="display: table-cell; white-space: nowrap; line-height: 1.5; max-width: 148px; text-align: start;"><span class="nodeLabel"><p>varchar</p></span></div></foreignObject></g><g class="label attribute-name" transform="translate(-26.375, 52.125)" style=""><foreignObject width="81.5" height="24"><div xmlns="http://www.w3.org/1999/xhtml" style="display: table-cell; white-space: nowrap; line-height: 1.5; max-width: 171px; text-align: start;"><span class="nodeLabel"><p>post_status</p></span></div></foreignObject></g><g class="label attribute-keys" transform="translate(92.75, 52.125)" style=""><foreignObject width="0" height="0"><div xmlns="http://www.w3.org/1999/xhtml" style="display: table-cell; white-space: nowrap; line-height: 1.5; max-width: 100px; text-align: start;"><span class="nodeLabel"></span></div></foreignObject></g><g class="label attribute-comment" transform="translate(135.890625, 52.125)" style=""><foreignObject width="0" height="0"><div xmlns="http://www.w3.org/1999/xhtml" style="display: table-cell; white-space: nowrap; line-height: 1.5; max-width: 100px; text-align: start;"><span class="nodeLabel"></span></div></foreignObject></g><g class="label attribute-type" transform="translate(-110.890625, 94.875)" style=""><foreignObject width="19.65625" height="24"><div xmlns="http://www.w3.org/1999/xhtml" style="display: table-cell; white-space: nowrap; line-height: 1.5; max-width: 117px; text-align: start;"><span class="nodeLabel"><p>int</p></span></div></foreignObject></g><g class="label attribute-name" transform="translate(-26.375, 94.875)" style=""><foreignObject width="86.546875" height="24"><div xmlns="http://www.w3.org/1999/xhtml" style="display: table-cell; white-space: nowrap; line-height: 1.5; max-width: 177px; text-align: start;"><span class="nodeLabel"><p>menu_order</p></span></div></foreignObject></g><g class="label attribute-keys" transform="translate(92.75, 94.875)" style=""><foreignObject width="0" height="0"><div xmlns="http://www.w3.org/1999/xhtml" style="display: table-cell; white-space: nowrap; line-height: 1.5; max-width: 100px; text-align: start;"><span class="nodeLabel"></span></div></foreignObject></g><g class="label attribute-comment" transform="translate(135.890625, 94.875)" style=""><foreignObject width="0" height="0"><div xmlns="http://www.w3.org/1999/xhtml" style="display: table-cell; white-space: nowrap; line-height: 1.5; max-width: 100px; text-align: start;"><span class="nodeLabel"></span></div></foreignObject></g><g class="label attribute-type" transform="translate(-110.890625, 137.625)" style=""><foreignObject width="41.15625" height="24"><div xmlns="http://www.w3.org/1999/xhtml" style="display: table-cell; white-space: nowrap; line-height: 1.5; max-width: 137px; text-align: start;"><span class="nodeLabel"><p>bigint</p></span></div></foreignObject></g><g class="label attribute-name" transform="translate(-26.375, 137.625)" style=""><foreignObject width="86.0625" height="24"><div xmlns="http://www.w3.org/1999/xhtml" style="display: table-cell; white-space: nowrap; line-height: 1.5; max-width: 175px; text-align: start;"><span class="nodeLabel"><p>post_parent</p></span></div></foreignObject></g><g class="label attribute-keys" transform="translate(92.75, 137.625)" style=""><foreignObject width="17.609375" height="24"><div xmlns="http://www.w3.org/1999/xhtml" style="display: table-cell; white-space: nowrap; line-height: 1.5; max-width: 121px; text-align: start;"><span class="nodeLabel"><p>FK</p></span></div></foreignObject></g><g class="label attribute-comment" transform="translate(135.890625, 137.625)" style=""><foreignObject width="0" height="0"><div xmlns="http://www.w3.org/1999/xhtml" style="display: table-cell; white-space: nowrap; line-height: 1.5; max-width: 100px; text-align: start;"><span class="nodeLabel"></span></div></foreignObject></g><g class="divider"><path d="M-123.390625 -128.25 C-72.16065327994397 -128.25, -20.930681559887944 -128.25, 123.390625 -128.25 M-123.390625 -128.25 C-33.00151441364383 -128.25, 57.387596172712335 -128.25, 123.390625 -128.25" stroke="#9370DB" stroke-width="1.3" fill="none" stroke-dasharray="0 0"/></g><g class="divider"><path d="M-38.875 -128.25 C-38.875 -13.990414174144306, -38.875 100.26917165171139, -38.875 171 M-38.875 -128.25 C-38.875 -54.00503240607041, -38.875 20.239935187859174, -38.875 171" stroke="#9370DB" stroke-width="1.3" fill="none" stroke-dasharray="0 0"/></g><g class="divider"><path d="M80.25 -128.25 C80.25 -37.68035967945754, 80.25 52.88928064108492, 80.25 171 M80.25 -128.25 C80.25 -60.00311390890094, 80.25 8.243772182198114, 80.25 171" stroke="#9370DB" stroke-width="1.3" fill="none" stroke-dasharray="0 0"/></g><g class="divider"><path d="M-123.390625 -128.25 C-32.14348168970807 -128.25, 59.103661620583864 -128.25, 123.390625 -128.25 M-123.390625 -128.25 C-56.511398581321444 -128.25, 10.367827837357112 -128.25, 123.390625 -128.25" stroke="#9370DB" stroke-width="1.3" fill="none" stroke-dasharray="0 0"/></g></g><g class="node default" id="entity-POSTMETA-1" transform="translate(126.1171875, 557.875)"><g style=""><path d="M-118.1171875 -106.875 L118.1171875 -106.875 L118.1171875 106.875 L-118.1171875 106.875" stroke="none" stroke-width="0" fill="#ECECFF"/><path d="M-118.1171875 -106.875 C-38.49022964667054 -106.875, 41.136728206658915 -106.875, 118.1171875 -106.875 M-118.1171875 -106.875 C-29.359210711338477 -106.875, 59.398766077323046 -106.875, 118.1171875 -106.875 M118.1171875 -106.875 C118.1171875 -45.90621170786444, 118.1171875 15.062576584271113, 118.1171875 106.875 M118.1171875 -106.875 C118.1171875 -57.274318123832415, 118.1171875 -7.673636247664831, 118.1171875 106.875 M118.1171875 106.875 C31.26308851370129 106.875, -55.59101047259742 106.875, -118.1171875 106.875 M118.1171875 106.875 C27.591754109859465 106.875, -62.93367928028107 106.875, -118.1171875 106.875 M-118.1171875 106.875 C-118.1171875 24.330030271993706, -118.1171875 -58.21493945601259, -118.1171875 -106.875 M-118.1171875 106.875 C-118.1171875 42.86152298531863, -118.1171875 -21.15195402936274, -118.1171875 -106.875" stroke="#9370DB" stroke-width="1.3" fill="none" stroke-dasharray="0 0"/></g><g style="" class="row-rect-odd"><path d="M-118.1171875 -64.125 L118.1171875 -64.125 L118.1171875 -21.375 L-118.1171875 -21.375" stroke="none" stroke-width="0" fill="hsl(240, 100%, 100%)"/><path d="M-118.1171875 -64.125 C-65.93115978253562 -64.125, -13.745132065071232 -64.125, 118.1171875 -64.125 M-118.1171875 -64.125 C-65.20914887459972 -64.125, -12.301110249199425 -64.125, 118.1171875 -64.125 M118.1171875 -64.125 C118.1171875 -47.44383802959089, 118.1171875 -30.76267605918178, 118.1171875 -21.375 M118.1171875 -64.125 C118.1171875 -52.20306636890332, 118.1171875 -40.28113273780664, 118.1171875 -21.375 M118.1171875 -21.375 C53.123229936422845 -21.375, -11.87072762715431 -21.375, -118.1171875 -21.375 M118.1171875 -21.375 C42.44921159865751 -21.375, -33.218764302684974 -21.375, -118.1171875 -21.375 M-118.1171875 -21.375 C-118.1171875 -32.46891016321361, -118.1171875 -43.56282032642721, -118.1171875 -64.125 M-118.1171875 -21.375 C-118.1171875 -33.01059266631134, -118.1171875 -44.646185332622686, -118.1171875 -64.125" stroke="#9370DB" stroke-width="1.3" fill="none" stroke-dasharray="0 0"/></g><g style="" class="row-rect-even"><path d="M-118.1171875 -21.375 L118.1171875 -21.375 L118.1171875 21.375 L-118.1171875 21.375" stroke="none" stroke-width="0" fill="hsl(240, 100%, 97.2745098039%)"/><path d="M-118.1171875 -21.375 C-51.47855377005797 -21.375, 15.160079959884058 -21.375, 118.1171875 -21.375 M-118.1171875 -21.375 C-67.18543368508767 -21.375, -16.25367987017536 -21.375, 118.1171875 -21.375 M118.1171875 -21.375 C118.1171875 -10.035068086779503, 118.1171875 1.304863826440993, 118.1171875 21.375 M118.1171875 -21.375 C118.1171875 -7.8269868084186545, 118.1171875 5.721026383162691, 118.1171875 21.375 M118.1171875 21.375 C35.310194848440645 21.375, -47.49679780311871 21.375, -118.1171875 21.375 M118.1171875 21.375 C44.14938339183092 21.375, -29.818420716338153 21.375, -118.1171875 21.375 M-118.1171875 21.375 C-118.1171875 9.087362147938904, -118.1171875 -3.200275704122191, -118.1171875 -21.375 M-118.1171875 21.375 C-118.1171875 8.76006157221118, -118.1171875 -3.85487685557764, -118.1171875 -21.375" stroke="#9370DB" stroke-width="1.3" fill="none" stroke-dasharray="0 0"/></g><g style="" class="row-rect-odd"><path d="M-118.1171875 21.375 L118.1171875 21.375 L118.1171875 64.125 L-118.1171875 64.125" stroke="none" stroke-width="0" fill="hsl(240, 100%, 100%)"/><path d="M-118.1171875 21.375 C-39.76920374040925 21.375, 38.578780019181494 21.375, 118.1171875 21.375 M-118.1171875 21.375 C-35.009312905306544 21.375, 48.09856168938691 21.375, 118.1171875 21.375 M118.1171875 21.375 C118.1171875 36.32135238824431, 118.1171875 51.26770477648862, 118.1171875 64.125 M118.1171875 21.375 C118.1171875 32.427418300995726, 118.1171875 43.479836601991444, 118.1171875 64.125 M118.1171875 64.125 C32.3420284939949 64.125, -53.433130512010194 64.125, -118.1171875 64.125 M118.1171875 64.125 C66.63666324621633 64.125, 15.156138992432673 64.125, -118.1171875 64.125 M-118.1171875 64.125 C-118.1171875 55.34986038100429, -118.1171875 46.57472076200859, -118.1171875 21.375 M-118.1171875 64.125 C-118.1171875 52.77575800608588, -118.1171875 41.42651601217175, -118.1171875 21.375" stroke="#9370DB" stroke-width="1.3" fill="none" stroke-dasharray="0 0"/></g><g style="" class="row-rect-even"><path d="M-118.1171875 64.125 L118.1171875 64.125 L118.1171875 106.875 L-118.1171875 106.875" stroke="none" stroke-width="0" fill="hsl(240, 100%, 97.2745098039%)"/><path d="M-118.1171875 64.125 C-60.331874800979904 64.125, -2.5465621019598075 64.125, 118.1171875 64.125 M-118.1171875 64.125 C-28.71179861567863 64.125, 60.69359026864274 64.125, 118.1171875 64.125 M118.1171875 64.125 C118.1171875 75.00997590135155, 118.1171875 85.8949518027031, 118.1171875 106.875 M118.1171875 64.125 C118.1171875 73.00993777222841, 118.1171875 81.89487554445682, 118.1171875 106.875 M118.1171875 106.875 C66.44173380063887 106.875, 14.76628010127773 106.875, -118.1171875 106.875 M118.1171875 106.875 C40.05716054559434 106.875, -38.002866408811315 106.875, -118.1171875 106.875 M-118.1171875 106.875 C-118.1171875 91.43243587231483, -118.1171875 75.98987174462965, -118.1171875 64.125 M-118.1171875 106.875 C-118.1171875 94.13733649415684, -118.1171875 81.39967298831368, -118.1171875 64.125" stroke="#9370DB" stroke-width="1.3" fill="none" stroke-dasharray="0 0"/></g><g class="label name" transform="translate(-36.890625, -97.5)" style=""><foreignObject width="73.78125" height="24"><div xmlns="http://www.w3.org/1999/xhtml" style="display: table-cell; white-space: nowrap; line-height: 1.5; max-width: 183px; text-align: start;"><span class="nodeLabel"><p>POSTMETA</p></span></div></foreignObject></g><g class="label attribute-type" transform="translate(-105.6171875, -54.75)" style=""><foreignObject width="41.15625" height="24"><div xmlns="http://www.w3.org/1999/xhtml" style="display: table-cell; white-space: nowrap; line-height: 1.5; max-width: 137px; text-align: start;"><span class="nodeLabel"><p>bigint</p></span></div></foreignObject></g><g class="label attribute-name" transform="translate(-21.1015625, -54.75)" style=""><foreignObject width="58.625" height="24"><div xmlns="http://www.w3.org/1999/xhtml" style="display: table-cell; white-space: nowrap; line-height: 1.5; max-width: 152px; text-align: start;"><span class="nodeLabel"><p>meta_id</p></span></div></foreignObject></g><g class="label attribute-keys" transform="translate(87.4765625, -54.75)" style=""><foreignObject width="18.140625" height="24"><div xmlns="http://www.w3.org/1999/xhtml" style="display: table-cell; white-space: nowrap; line-height: 1.5; max-width: 121px; text-align: start;"><span class="nodeLabel"><p>PK</p></span></div></foreignObject></g><g class="label attribute-comment" transform="translate(130.6171875, -54.75)" style=""><foreignObject width="0" height="0"><div xmlns="http://www.w3.org/1999/xhtml" style="display: table-cell; white-space: nowrap; line-height: 1.5; max-width: 100px; text-align: start;"><span class="nodeLabel"></span></div></foreignObject></g><g class="label attribute-type" transform="translate(-105.6171875, -12)" style=""><foreignObject width="41.15625" height="24"><div xmlns="http://www.w3.org/1999/xhtml" style="display: table-cell; white-space: nowrap; line-height: 1.5; max-width: 137px; text-align: start;"><span class="nodeLabel"><p>bigint</p></span></div></foreignObject></g><g class="label attribute-name" transform="translate(-21.1015625, -12)" style=""><foreignObject width="52.1875" height="24"><div xmlns="http://www.w3.org/1999/xhtml" style="display: table-cell; white-space: nowrap; line-height: 1.5; max-width: 147px; text-align: start;"><span class="nodeLabel"><p>post_id</p></span></div></foreignObject></g><g class="label attribute-keys" transform="translate(87.4765625, -12)" style=""><foreignObject width="17.609375" height="24"><div xmlns="http://www.w3.org/1999/xhtml" style="display: table-cell; white-space: nowrap; line-height: 1.5; max-width: 121px; text-align: start;"><span class="nodeLabel"><p>FK</p></span></div></foreignObject></g><g class="label attribute-comment" transform="translate(130.6171875, -12)" style=""><foreignObject width="0" height="0"><div xmlns="http://www.w3.org/1999/xhtml" style="display: table-cell; white-space: nowrap; line-height: 1.5; max-width: 100px; text-align: start;"><span class="nodeLabel"></span></div></foreignObject></g><g class="label attribute-type" transform="translate(-105.6171875, 30.75)" style=""><foreignObject width="53.75" height="24"><div xmlns="http://www.w3.org/1999/xhtml" style="display: table-cell; white-space: nowrap; line-height: 1.5; max-width: 148px; text-align: start;"><span class="nodeLabel"><p>varchar</p></span></div></foreignObject></g><g class="label attribute-name" transform="translate(-21.1015625, 30.75)" style=""><foreignObject width="69.84375" height="24"><div xmlns="http://www.w3.org/1999/xhtml" style="display: table-cell; white-space: nowrap; line-height: 1.5; max-width: 162px; text-align: start;"><span class="nodeLabel"><p>meta_key</p></span></div></foreignObject></g><g class="label attribute-keys" transform="translate(87.4765625, 30.75)" style=""><foreignObject width="0" height="0"><div xmlns="http://www.w3.org/1999/xhtml" style="display: table-cell; white-space: nowrap; line-height: 1.5; max-width: 100px; text-align: start;"><span class="nodeLabel"></span></div></foreignObject></g><g class="label attribute-comment" transform="translate(130.6171875, 30.75)" style=""><foreignObject width="0" height="0"><div xmlns="http://www.w3.org/1999/xhtml" style="display: table-cell; white-space: nowrap; line-height: 1.5; max-width: 100px; text-align: start;"><span class="nodeLabel"></span></div></foreignObject></g><g class="label attribute-type" transform="translate(-105.6171875, 73.5)" style=""><foreignObject width="59.515625" height="24"><div xmlns="http://www.w3.org/1999/xhtml" style="display: table-cell; white-space: nowrap; line-height: 1.5; max-width: 152px; text-align: start;"><span class="nodeLabel"><p>longtext</p></span></div></foreignObject></g><g class="label attribute-name" transform="translate(-21.1015625, 73.5)" style=""><foreignObject width="83.578125" height="24"><div xmlns="http://www.w3.org/1999/xhtml" style="display: table-cell; white-space: nowrap; line-height: 1.5; max-width: 174px; text-align: start;"><span class="nodeLabel"><p>meta_value</p></span></div></foreignObject></g><g class="label attribute-keys" transform="translate(87.4765625, 73.5)" style=""><foreignObject width="0" height="0"><div xmlns="http://www.w3.org/1999/xhtml" style="display: table-cell; white-space: nowrap; line-height: 1.5; max-width: 100px; text-align: start;"><span class="nodeLabel"></span></div></foreignObject></g><g class="label attribute-comment" transform="translate(130.6171875, 73.5)" style=""><foreignObject width="0" height="0"><div xmlns="http://www.w3.org/1999/xhtml" style="display: table-cell; white-space: nowrap; line-height: 1.5; max-width: 100px; text-align: start;"><span class="nodeLabel"></span></div></foreignObject></g><g class="divider"><path d="M-118.1171875 -64.125 C-64.45861246108532 -64.125, -10.800037422170647 -64.125, 118.1171875 -64.125 M-118.1171875 -64.125 C-34.45194229953596 -64.125, 49.213302900928085 -64.125, 118.1171875 -64.125" stroke="#9370DB" stroke-width="1.3" fill="none" stroke-dasharray="0 0"/></g><g class="divider"><path d="M-33.6015625 -64.125 C-33.6015625 -21.636163460823006, -33.6015625 20.852673078353988, -33.6015625 106.875 M-33.6015625 -64.125 C-33.6015625 -17.946209969347528, -33.6015625 28.232580061304944, -33.6015625 106.875" stroke="#9370DB" stroke-width="1.3" fill="none" stroke-dasharray="0 0"/></g><g class="divider"><path d="M74.9765625 -64.125 C74.9765625 -2.9331228765165775, 74.9765625 58.258754246966845, 74.9765625 106.875 M74.9765625 -64.125 C74.9765625 -28.345683710768327, 74.9765625 7.433632578463346, 74.9765625 106.875" stroke="#9370DB" stroke-width="1.3" fill="none" stroke-dasharray="0 0"/></g><g class="divider"><path d="M-118.1171875 -64.125 C-47.45621344075455 -64.125, 23.204760618490894 -64.125, 118.1171875 -64.125 M-118.1171875 -64.125 C-42.44110081801165 -64.125, 33.2349858639767 -64.125, 118.1171875 -64.125" stroke="#9370DB" stroke-width="1.3" fill="none" stroke-dasharray="0 0"/></g></g><g class="label edgeLabel" id="entity-PAGE-0---entity-PAGE-0---1" transform="translate(384.28437500074506, 557.875)"><rect width="0.1" height="0.1"/><g class="label" style="" transform="translate(0, 0)"><rect/><foreignObject width="0" height="0"><div xmlns="http://www.w3.org/1999/xhtml" style="display: table-cell; white-space: nowrap; line-height: 1.5; max-width: 10px; text-align: center;"><span class="nodeLabel"></span></div></foreignObject></g></g><g class="label edgeLabel" id="entity-PAGE-0---entity-PAGE-0---2" transform="translate(424.3093750011176, 765.8000000007451)"><rect width="0.1" height="0.1"/><g class="label" style="" transform="translate(0, 0)"><rect/><foreignObject width="0" height="0"><div xmlns="http://www.w3.org/1999/xhtml" style="display: table-cell; white-space: nowrap; line-height: 1.5; max-width: 10px; text-align: center;"><span class="nodeLabel"></span></div></foreignObject></g></g></g></g></g></svg>